<?xml version="1.0" standalone="no"?>
<!DOCTYPE svg PUBLIC "-//W3C//DTD SVG 20010904//EN"
 "http://www.w3.org/TR/2001/REC-SVG-20010904/DTD/svg10.dtd">
<svg version="1.0" xmlns="http://www.w3.org/2000/svg"
 width="300.000000pt" height="300.000000pt" viewBox="0 0 300.000000 300.000000"
 preserveAspectRatio="xMidYMid meet">
<metadata>
Created by potrace 1.10, written by Peter Selinger 2001-2011
</metadata>
<g transform="translate(0.000000,300.000000) scale(0.100000,-0.100000)"
fill="#000000" stroke="none">
<path d="M1340 2151 c0 -18 30 -137 45 -182 36 -102 80 -175 150 -244 91 -91
202 -149 325 -169 33 -5 34 -5 16 9 -11 8 -28 15 -37 15 -10 0 -21 5 -24 10
-3 6 -14 10 -24 10 -10 0 -55 18 -99 40 -92 46 -168 117 -221 204 -32 54 -82
186 -94 253 -6 29 -4 32 24 38 68 15 204 -13 303 -62 136 -68 208 -173 228
-332 8 -68 14 -88 21 -75 12 22 1 127 -20 190 -45 136 -182 250 -345 289 -70
16 -248 20 -248 6z"/>
<path d="M2301 2004 c-167 -36 -280 -150 -296 -300 l-5 -49 18 50 c50 140 116
216 217 254 75 28 110 25 110 -9 0 -43 -13 -103 -34 -161 -25 -67 -94 -142
-172 -186 -109 -63 -117 -87 -11 -35 67 32 166 121 192 172 33 65 74 281 53
279 -4 0 -37 -7 -72 -15z"/>
<path d="M1600 1957 c0 -7 19 -24 43 -37 113 -64 214 -198 267 -356 30 -89 34
-114 38 -241 3 -107 8 -143 17 -143 9 0 15 26 20 88 17 246 76 415 183 524 28
29 33 41 24 50 -15 15 -50 -16 -102 -92 -54 -80 -79 -133 -100 -213 -10 -40
-20 -65 -23 -57 -2 8 -10 40 -17 70 -15 65 -68 177 -115 240 -79 107 -235 218
-235 167z"/>
<path d="M745 1482 c-5 -5 -75 -44 -155 -85 -97 -51 -146 -82 -148 -94 -2 -14
33 -36 158 -101 l160 -83 0 34 c0 33 -2 34 -121 92 -67 33 -115 61 -108 63 21
6 213 103 222 112 5 4 7 22 5 39 -2 21 -6 29 -13 23z"/>
<path d="M2242 1454 c3 -33 9 -39 68 -72 36 -19 90 -46 120 -58 53 -22 54 -23
28 -33 -14 -5 -69 -31 -122 -57 -93 -45 -96 -48 -96 -81 l0 -34 160 83 c113
59 160 88 160 100 0 12 -30 33 -97 67 -54 27 -126 65 -161 85 l-63 36 3 -36z"/>
<path d="M815 1392 c-3 -3 -5 -47 -5 -99 l0 -93 49 0 c42 0 53 4 70 26 37 47
22 150 -23 159 -41 8 -86 11 -91 7z m89 -44 c34 -48 14 -118 -34 -118 l-30 0
0 70 c0 68 1 70 24 70 14 0 32 -10 40 -22z"/>
<path d="M1004 1391 c-2 -2 -4 -46 -4 -98 l0 -93 65 0 c51 0 65 3 65 15 0 11
-12 15 -51 15 -49 0 -50 1 -47 28 3 25 6 27 41 24 28 -3 37 0 37 12 0 12 -10
16 -40 16 -38 0 -40 1 -40 31 l0 32 50 -5 c42 -4 50 -2 50 12 0 13 -10 16 -61
16 -33 -1 -62 -3 -65 -5z"/>
<path d="M1183 1383 c2 -10 15 -55 28 -100 20 -69 27 -83 44 -83 17 0 25 16
48 93 32 105 32 107 12 107 -8 0 -19 -17 -25 -42 -6 -24 -17 -61 -23 -82 -12
-44 -10 -48 -42 67 -10 39 -21 57 -31 57 -11 0 -15 -6 -11 -17z"/>
<path d="M1380 1358 c0 -21 5 -38 10 -38 6 0 10 11 10 25 0 16 6 25 15 25 12
0 15 -14 15 -70 0 -56 -3 -70 -15 -70 -8 0 -15 -7 -15 -15 0 -11 12 -15 45
-15 33 0 45 4 45 15 0 8 -7 15 -15 15 -12 0 -15 14 -15 70 0 56 3 70 15 70 9
0 15 -9 15 -25 0 -16 6 -25 16 -25 11 0 14 9 12 37 l-3 36 -68 1 -67 1 0 -37z"/>
<path d="M1593 1376 c-24 -20 -28 -32 -28 -73 0 -67 24 -103 70 -103 64 0 98
87 60 159 -24 47 -60 53 -102 17z m77 -25 c17 -33 12 -96 -9 -115 -52 -47 -95
63 -49 122 15 18 46 15 58 -7z"/>
<path d="M1780 1375 c-30 -32 -33 -109 -7 -149 25 -37 77 -36 107 2 30 37 24
126 -10 154 -31 25 -62 23 -90 -7z m80 -24 c17 -33 12 -96 -9 -115 -52 -47
-95 63 -49 122 15 18 46 15 58 -7z"/>
<path d="M2070 1383 c-31 -22 -26 -61 11 -81 17 -9 41 -25 53 -34 19 -15 20
-18 5 -33 -19 -20 -59 -12 -59 11 0 8 -7 14 -15 14 -10 0 -15 -10 -15 -28 0
-26 3 -28 50 -30 43 -2 52 1 66 23 23 35 9 64 -43 87 -30 13 -43 25 -41 36 5
25 45 27 58 3 16 -31 30 -25 30 12 0 31 -2 32 -40 33 -21 1 -48 -5 -60 -13z"/>
</g>
</svg>
